<svg width="16" height="16" viewBox="0 0 16 16" fill="none" xmlns="http://www.w3.org/2000/svg">
<mask id="path-1-inside-1_303_4585" fill="white">
<path d="M1 2.5C1 2.10218 1.15804 1.72064 1.43934 1.43934C1.72064 1.15804 2.10218 1 2.5 1H5.5C5.89782 1 6.27936 1.15804 6.56066 1.43934C6.84196 1.72064 7 2.10218 7 2.5V5.5C7 5.89782 6.84196 6.27936 6.56066 6.56066C6.27936 6.84196 5.89782 7 5.5 7H2.5C2.10218 7 1.72064 6.84196 1.43934 6.56066C1.15804 6.27936 1 5.89782 1 5.5V2.5ZM2.5 2C2.36739 2 2.24021 2.05268 2.14645 2.14645C2.05268 2.24021 2 2.36739 2 2.5V5.5C2 5.63261 2.05268 5.75979 2.14645 5.85355C2.24021 5.94732 2.36739 6 2.5 6H5.5C5.63261 6 5.75979 5.94732 5.85355 5.85355C5.94732 5.75979 6 5.63261 6 5.5V2.5C6 2.36739 5.94732 2.24021 5.85355 2.14645C5.75979 2.05268 5.63261 2 5.5 2H2.5ZM9 2.5C9 2.10218 9.15804 1.72064 9.43934 1.43934C9.72064 1.15804 10.1022 1 10.5 1H13.5C13.8978 1 14.2794 1.15804 14.5607 1.43934C14.842 1.72064 15 2.10218 15 2.5V5.5C15 5.89782 14.842 6.27936 14.5607 6.56066C14.2794 6.84196 13.8978 7 13.5 7H10.5C10.1022 7 9.72064 6.84196 9.43934 6.56066C9.15804 6.27936 9 5.89782 9 5.5V2.5ZM10.5 2C10.3674 2 10.2402 2.05268 10.1464 2.14645C10.0527 2.24021 10 2.36739 10 2.5V5.5C10 5.63261 10.0527 5.75979 10.1464 5.85355C10.2402 5.94732 10.3674 6 10.5 6H13.5C13.6326 6 13.7598 5.94732 13.8536 5.85355C13.9473 5.75979 14 5.63261 14 5.5V2.5C14 2.36739 13.9473 2.24021 13.8536 2.14645C13.7598 2.05268 13.6326 2 13.5 2H10.5ZM1 10.5C1 10.1022 1.15804 9.72064 1.43934 9.43934C1.72064 9.15804 2.10218 9 2.5 9H5.5C5.89782 9 6.27936 9.15804 6.56066 9.43934C6.84196 9.72064 7 10.1022 7 10.5V13.5C7 13.8978 6.84196 14.2794 6.56066 14.5607C6.27936 14.842 5.89782 15 5.5 15H2.5C2.10218 15 1.72064 14.842 1.43934 14.5607C1.15804 14.2794 1 13.8978 1 13.5V10.5ZM2.5 10C2.36739 10 2.24021 10.0527 2.14645 10.1464C2.05268 10.2402 2 10.3674 2 10.5V13.5C2 13.6326 2.05268 13.7598 2.14645 13.8536C2.24021 13.9473 2.36739 14 2.5 14H5.5C5.63261 14 5.75979 13.9473 5.85355 13.8536C5.94732 13.7598 6 13.6326 6 13.5V10.5C6 10.3674 5.94732 10.2402 5.85355 10.1464C5.75979 10.0527 5.63261 10 5.5 10H2.5ZM9 10.5C9 10.1022 9.15804 9.72064 9.43934 9.43934C9.72064 9.15804 10.1022 9 10.5 9H13.5C13.8978 9 14.2794 9.15804 14.5607 9.43934C14.842 9.72064 15 10.1022 15 10.5V13.5C15 13.8978 14.842 14.2794 14.5607 14.5607C14.2794 14.842 13.8978 15 13.5 15H10.5C10.1022 15 9.72064 14.842 9.43934 14.5607C9.15804 14.2794 9 13.8978 9 13.5V10.5ZM10.5 10C10.3674 10 10.2402 10.0527 10.1464 10.1464C10.0527 10.2402 10 10.3674 10 10.5V13.5C10 13.6326 10.0527 13.7598 10.1464 13.8536C10.2402 13.9473 10.3674 14 10.5 14H13.5C13.6326 14 13.7598 13.9473 13.8536 13.8536C13.9473 13.7598 14 13.6326 14 13.5V10.5C14 10.3674 13.9473 10.2402 13.8536 10.1464C13.7598 10.0527 13.6326 10 13.5 10H10.5Z"/>
</mask>
<path d="M1 2.5H0H1ZM2.5 1V0V1ZM5.5 1V0V1ZM7 5.5H8H7ZM2.5 7V8V7ZM1 5.5H0H1ZM2 2.5H1H2ZM5.5 2V1V2ZM10.5 1V0V1ZM15 2.5H16H15ZM15 5.5H16H15ZM10.5 7V8V7ZM9 5.5H8H9ZM13.5 2V1V2ZM1 10.5H0H1ZM2.5 9V8V9ZM5.5 9V8V9ZM7 13.5H8H7ZM5.5 15V16V15ZM2.5 15V16V15ZM1 13.5H0H1ZM2 10.5H1H2ZM10.5 9V8V9ZM13.5 9V8V9ZM15 10.5H16H15ZM15 13.5H16H15ZM13.5 15V16V15ZM10.5 15V16V15ZM9 13.5H8H9ZM2 2.5C2 2.36739 2.05268 2.24021 2.14645 2.14645L0.732233 0.732233C0.263392 1.20107 0 1.83696 0 2.5H2ZM2.14645 2.14645C2.24021 2.05268 2.36739 2 2.5 2V0C1.83696 0 1.20107 0.263392 0.732233 0.732233L2.14645 2.14645ZM2.5 2H5.5V0H2.5V2ZM5.5 2C5.63261 2 5.75979 2.05268 5.85355 2.14645L7.26777 0.732233C6.79893 0.263392 6.16304 0 5.5 0V2ZM5.85355 2.14645C5.94732 2.24021 6 2.36739 6 2.5H8C8 1.83696 7.73661 1.20107 7.26777 0.732233L5.85355 2.14645ZM6 2.5V5.5H8V2.5H6ZM6 5.5C6 5.63261 5.94732 5.75979 5.85355 5.85355L7.26777 7.26777C7.73661 6.79893 8 6.16304 8 5.5H6ZM5.85355 5.85355C5.75979 5.94732 5.63261 6 5.5 6V8C6.16304 8 6.79893 7.73661 7.26777 7.26777L5.85355 5.85355ZM5.5 6H2.5V8H5.5V6ZM2.5 6C2.36739 6 2.24021 5.94732 2.14645 5.85355L0.732233 7.26777C1.20107 7.73661 1.83696 8 2.5 8V6ZM2.14645 5.85355C2.05268 5.75979 2 5.63261 2 5.5H0C0 6.16304 0.263392 6.79893 0.732233 7.26777L2.14645 5.85355ZM2 5.5V2.5H0V5.5H2ZM2.5 1C2.10217 1 1.72064 1.15804 1.43934 1.43934L2.85355 2.85355C2.75979 2.94732 2.63261 3 2.5 3V1ZM1.43934 1.43934C1.15804 1.72064 1 2.10217 1 2.5H3C3 2.63261 2.94732 2.75979 2.85355 2.85355L1.43934 1.43934ZM1 2.5V5.5H3V2.5H1ZM1 5.5C1 5.89783 1.15804 6.27936 1.43934 6.56066L2.85355 5.14645C2.94732 5.24021 3 5.36739 3 5.5H1ZM1.43934 6.56066C1.72064 6.84196 2.10217 7 2.5 7V5C2.63261 5 2.75979 5.05268 2.85355 5.14645L1.43934 6.56066ZM2.5 7H5.5V5H2.5V7ZM5.5 7C5.89783 7 6.27936 6.84196 6.56066 6.56066L5.14645 5.14645C5.24021 5.05268 5.36739 5 5.5 5V7ZM6.56066 6.56066C6.84196 6.27936 7 5.89783 7 5.5H5C5 5.36739 5.05268 5.24021 5.14645 5.14645L6.56066 6.56066ZM7 5.5V2.5H5V5.5H7ZM7 2.5C7 2.10217 6.84196 1.72064 6.56066 1.43934L5.14645 2.85355C5.05268 2.75979 5 2.63261 5 2.5H7ZM6.56066 1.43934C6.27936 1.15804 5.89783 1 5.5 1V3C5.36739 3 5.24021 2.94732 5.14645 2.85355L6.56066 1.43934ZM5.5 1H2.5V3H5.5V1ZM10 2.5C10 2.36739 10.0527 2.24021 10.1464 2.14645L8.73223 0.732233C8.26339 1.20107 8 1.83696 8 2.5H10ZM10.1464 2.14645C10.2402 2.05268 10.3674 2 10.5 2V0C9.83696 0 9.20107 0.263392 8.73223 0.732233L10.1464 2.14645ZM10.5 2H13.5V0H10.5V2ZM13.5 2C13.6326 2 13.7598 2.05268 13.8536 2.14645L15.2678 0.732233C14.7989 0.263392 14.163 0 13.5 0V2ZM13.8536 2.14645C13.9473 2.24021 14 2.36739 14 2.5H16C16 1.83696 15.7366 1.20107 15.2678 0.732233L13.8536 2.14645ZM14 2.5V5.5H16V2.5H14ZM14 5.5C14 5.63261 13.9473 5.75979 13.8536 5.85355L15.2678 7.26777C15.7366 6.79893 16 6.16304 16 5.5H14ZM13.8536 5.85355C13.7598 5.94732 13.6326 6 13.5 6V8C14.163 8 14.7989 7.73661 15.2678 7.26777L13.8536 5.85355ZM13.5 6H10.5V8H13.5V6ZM10.5 6C10.3674 6 10.2402 5.94732 10.1464 5.85355L8.73223 7.26777C9.20107 7.73661 9.83696 8 10.5 8V6ZM10.1464 5.85355C10.0527 5.75979 10 5.63261 10 5.5H8C8 6.16304 8.26339 6.79893 8.73223 7.26777L10.1464 5.85355ZM10 5.5V2.5H8V5.5H10ZM10.5 1C10.1022 1 9.72064 1.15804 9.43934 1.43934L10.8536 2.85355C10.7598 2.94732 10.6326 3 10.5 3V1ZM9.43934 1.43934C9.15803 1.72065 9 2.10218 9 2.5H11C11 2.63261 10.9473 2.75978 10.8536 2.85355L9.43934 1.43934ZM9 2.5V5.5H11V2.5H9ZM9 5.5C9 5.89782 9.15803 6.27935 9.43934 6.56066L10.8536 5.14645C10.9473 5.24022 11 5.36739 11 5.5H9ZM9.43934 6.56066C9.72064 6.84196 10.1022 7 10.5 7V5C10.6326 5 10.7598 5.05268 10.8536 5.14645L9.43934 6.56066ZM10.5 7H13.5V5H10.5V7ZM13.5 7C13.8978 7 14.2794 6.84196 14.5607 6.56066L13.1464 5.14645C13.2402 5.05268 13.3674 5 13.5 5V7ZM14.5607 6.56066C14.842 6.27935 15 5.89782 15 5.5H13C13 5.36739 13.0527 5.24022 13.1464 5.14645L14.5607 6.56066ZM15 5.5V2.5H13V5.5H15ZM15 2.5C15 2.10218 14.842 1.72065 14.5607 1.43934L13.1464 2.85355C13.0527 2.75978 13 2.63261 13 2.5H15ZM14.5607 1.43934C14.2794 1.15804 13.8978 1 13.5 1V3C13.3674 3 13.2402 2.94732 13.1464 2.85355L14.5607 1.43934ZM13.5 1H10.5V3H13.5V1ZM2 10.5C2 10.3674 2.05268 10.2402 2.14645 10.1464L0.732233 8.73223C0.263392 9.20107 0 9.83696 0 10.5H2ZM2.14645 10.1464C2.24021 10.0527 2.36739 10 2.5 10V8C1.83696 8 1.20107 8.26339 0.732233 8.73223L2.14645 10.1464ZM2.5 10H5.5V8H2.5V10ZM5.5 10C5.63261 10 5.75979 10.0527 5.85355 10.1464L7.26777 8.73223C6.79893 8.26339 6.16304 8 5.5 8V10ZM5.85355 10.1464C5.94732 10.2402 6 10.3674 6 10.5H8C8 9.83696 7.73661 9.20107 7.26777 8.73223L5.85355 10.1464ZM6 10.5V13.5H8V10.5H6ZM6 13.5C6 13.6326 5.94732 13.7598 5.85355 13.8536L7.26777 15.2678C7.73661 14.7989 8 14.163 8 13.5H6ZM5.85355 13.8536C5.75979 13.9473 5.63261 14 5.5 14V16C6.16304 16 6.79893 15.7366 7.26777 15.2678L5.85355 13.8536ZM5.5 14H2.5V16H5.5V14ZM2.5 14C2.36739 14 2.24021 13.9473 2.14645 13.8536L0.732233 15.2678C1.20107 15.7366 1.83696 16 2.5 16V14ZM2.14645 13.8536C2.05268 13.7598 2 13.6326 2 13.5H0C0 14.163 0.263392 14.7989 0.732233 15.2678L2.14645 13.8536ZM2 13.5V10.5H0V13.5H2ZM2.5 9C2.10218 9 1.72065 9.15803 1.43934 9.43934L2.85355 10.8536C2.75978 10.9473 2.63261 11 2.5 11V9ZM1.43934 9.43934C1.15804 9.72064 1 10.1022 1 10.5H3C3 10.6326 2.94732 10.7598 2.85355 10.8536L1.43934 9.43934ZM1 10.5V13.5H3V10.5H1ZM1 13.5C1 13.8978 1.15804 14.2794 1.43934 14.5607L2.85355 13.1464C2.94732 13.2402 3 13.3674 3 13.5H1ZM1.43934 14.5607C1.72065 14.842 2.10218 15 2.5 15V13C2.63261 13 2.75978 13.0527 2.85355 13.1464L1.43934 14.5607ZM2.5 15H5.5V13H2.5V15ZM5.5 15C5.89782 15 6.27935 14.842 6.56066 14.5607L5.14645 13.1464C5.24022 13.0527 5.36739 13 5.5 13V15ZM6.56066 14.5607C6.84196 14.2794 7 13.8978 7 13.5H5C5 13.3674 5.05268 13.2402 5.14645 13.1464L6.56066 14.5607ZM7 13.5V10.5H5V13.5H7ZM7 10.5C7 10.1022 6.84196 9.72064 6.56066 9.43934L5.14645 10.8536C5.05268 10.7598 5 10.6326 5 10.5H7ZM6.56066 9.43934C6.27935 9.15803 5.89782 9 5.5 9V11C5.36739 11 5.24022 10.9473 5.14645 10.8536L6.56066 9.43934ZM5.5 9H2.5V11H5.5V9ZM10 10.5C10 10.3674 10.0527 10.2402 10.1464 10.1464L8.73223 8.73223C8.26339 9.20107 8 9.83696 8 10.5H10ZM10.1464 10.1464C10.2402 10.0527 10.3674 10 10.5 10V8C9.83696 8 9.20107 8.26339 8.73223 8.73223L10.1464 10.1464ZM10.5 10H13.5V8H10.5V10ZM13.5 10C13.6326 10 13.7598 10.0527 13.8536 10.1464L15.2678 8.73223C14.7989 8.26339 14.163 8 13.5 8V10ZM13.8536 10.1464C13.9473 10.2402 14 10.3674 14 10.5H16C16 9.83696 15.7366 9.20107 15.2678 8.73223L13.8536 10.1464ZM14 10.5V13.5H16V10.5H14ZM14 13.5C14 13.6326 13.9473 13.7598 13.8536 13.8536L15.2678 15.2678C15.7366 14.7989 16 14.163 16 13.5H14ZM13.8536 13.8536C13.7598 13.9473 13.6326 14 13.5 14V16C14.163 16 14.7989 15.7366 15.2678 15.2678L13.8536 13.8536ZM13.5 14H10.5V16H13.5V14ZM10.5 14C10.3674 14 10.2402 13.9473 10.1464 13.8536L8.73223 15.2678C9.20107 15.7366 9.83696 16 10.5 16V14ZM10.1464 13.8536C10.0527 13.7598 10 13.6326 10 13.5H8C8 14.163 8.26339 14.7989 8.73223 15.2678L10.1464 13.8536ZM10 13.5V10.5H8V13.5H10ZM10.5 9C10.1022 9 9.72065 9.15803 9.43934 9.43934L10.8536 10.8536C10.7598 10.9473 10.6326 11 10.5 11V9ZM9.43934 9.43934C9.15803 9.72065 9 10.1022 9 10.5H11C11 10.6326 10.9473 10.7598 10.8536 10.8536L9.43934 9.43934ZM9 10.5V13.5H11V10.5H9ZM9 13.5C9 13.8978 9.15803 14.2794 9.43934 14.5607L10.8536 13.1464C10.9473 13.2402 11 13.3674 11 13.5H9ZM9.43934 14.5607C9.72065 14.842 10.1022 15 10.5 15V13C10.6326 13 10.7598 13.0527 10.8536 13.1464L9.43934 14.5607ZM10.5 15H13.5V13H10.5V15ZM13.5 15C13.8978 15 14.2794 14.842 14.5607 14.5607L13.1464 13.1464C13.2402 13.0527 13.3674 13 13.5 13V15ZM14.5607 14.5607C14.842 14.2794 15 13.8978 15 13.5H13C13 13.3674 13.0527 13.2402 13.1464 13.1464L14.5607 14.5607ZM15 13.5V10.5H13V13.5H15ZM15 10.5C15 10.1022 14.842 9.72065 14.5607 9.43934L13.1464 10.8536C13.0527 10.7598 13 10.6326 13 10.5H15ZM14.5607 9.43934C14.2794 9.15803 13.8978 9 13.5 9V11C13.3674 11 13.2402 10.9473 13.1464 10.8536L14.5607 9.43934ZM13.5 9H10.5V11H13.5V9Z" fill="#FF5F24" mask="url(#path-1-inside-1_303_4585)"/>
</svg>
